<svg xmlns="http://www.w3.org/2000/svg" fill="none" viewBox="0 0 199 257">
  <path fill="#000" fill-rule="evenodd" d="M99.5 9c-9.8184 0-19.4162 2.1391-28.1704 6.1593L63.299 1.25001C62.8848.532568 61.9674.286755 61.25.700968c-.7174.414212-.9632 1.331602-.549 2.049042L68.6251 16.475c-6.1656 3.1712-11.8611 7.3016-16.8548 12.2953C39.1116 41.429 32 58.5979 32 76.5h135c0-17.9021-7.112-35.071-19.77-47.7297-4.695-4.6951-10.011-8.6272-15.754-11.7163l8.258-14.30399c.414-.71744.168-1.63483-.549-2.049042-.717-.414213-1.635-.1684-2.049.549042l-8.337 14.44019C119.744 11.3277 109.742 9 99.5 9ZM75 35c0 2.7614-2.2386 5-5 5s-5-2.2386-5-5 2.2386-5 5-5 5 2.2386 5 5Zm60 0c0 2.7614-2.239 5-5 5s-5-2.2386-5-5 2.239-5 5-5 5 2.2386 5 5ZM13.5 81C6.04416 81 0 87.0442 0 94.5v69c0 7.456 6.04416 13.5 13.5 13.5 7.4558 0 13.5-6.044 13.5-13.5v-69C27 87.0442 20.9558 81 13.5 81Zm172 0c-7.456 0-13.5 6.0442-13.5 13.5v69c0 7.456 6.044 13.5 13.5 13.5s13.5-6.044 13.5-13.5v-69c0-7.4558-6.044-13.5-13.5-13.5ZM167 206V81H32v125c0 5.523 4.4772 10 10 10h14v27.5c0 7.456 6.0442 13.5 13.5 13.5S83 250.956 83 243.5V216h33v27.5c0 7.456 6.044 13.5 13.5 13.5s13.5-6.044 13.5-13.5V216h14c5.523 0 10-4.477 10-10Z" clip-rule="evenodd"/>
</svg>
