<svg xmlns="http://www.w3.org/2000/svg" fill="none" viewBox="0 0 229 258">
  <path fill="#000" fill-rule="evenodd" d="M77.7673 118.345c4.7306-5.763 3.8938-14.269-1.869-18.9998L22.5658 55.5656c-5.7628-4.7307-14.26949-3.8939-19.00013 1.869-4.73064 5.7629-3.893846 14.2695 1.86903 19.0002l53.3324 43.7792c5.7629 4.731 14.2695 3.894 19.0002-1.869ZM215.5 80.5003c-7.456 0-13.5 6.0441-13.5 13.5V163c0 7.456 6.044 13.5 13.5 13.5S229 170.456 229 163V94.0003c0-7.4559-6.044-13.5-13.5-13.5Z" clip-rule="evenodd"/>
  <path fill="#271919" fill-rule="evenodd" d="M99.5 160.5c-7.4558 0-13.5 6.044-13.5 13.5v69c0 7.456 6.0442 13.5 13.5 13.5 7.456 0 13.5-6.044 13.5-13.5v-69c0-7.456-6.044-13.5-13.5-13.5Zm35.42 16.438c-6.031 4.384-7.366 12.827-2.982 18.858l40.572 55.811c4.384 6.031 12.827 7.366 18.857 2.982 6.031-4.384 7.366-12.827 2.982-18.858l-40.572-55.811c-4.384-6.031-12.827-7.366-18.857-2.982Z" clip-rule="evenodd"/>
  <path fill="#000" d="M62 80.5002h135V205.5c0 5.523-4.477 10-10 10H72c-5.5228 0-10-4.477-10-10V80.5002Z"/>
  <path fill="#000" fill-rule="evenodd" d="M101.33 14.6596c8.754-4.0202 18.352-6.15936 28.17-6.15936 10.242 0 20.244 2.32776 29.299 6.69026L167.136.75025c.414-.7174379 1.332-.963251 2.049-.549038.717.414214.963 1.331598.549 2.049038l-8.258 14.30405c5.743 3.0891 11.059 7.0211 15.754 11.7162C189.888 40.9292 197 58.0981 197 76.0002H62c0-17.9021 7.1116-35.071 19.7703-47.7297 4.9937-4.9937 10.6892-9.1241 16.8548-12.2953L90.701 2.25025c-.4142-.71744-.1684-1.634824.549-2.049038.7174-.414213 1.6348-.1683999 2.049.549038l8.031 13.90935ZM100 39.5002c2.761 0 5-2.2385 5-5 0-2.7614-2.239-5-5-5-2.7614 0-5 2.2386-5 5 0 2.7615 2.2386 5 5 5Zm60 0c2.761 0 5-2.2385 5-5 0-2.7614-2.239-5-5-5s-5 2.2386-5 5c0 2.7615 2.239 5 5 5Z" clip-rule="evenodd"/>
</svg>
